<svg version="1.1" xmlns="http://www.w3.org/2000/svg" viewBox="0 0 2686.355611947003 4115.892763147765" width="2686.355611947003" height="4115.892763147765">
  <!-- svg-source:excalidraw -->
  
  <defs>
    <style class="style-fonts">
      @font-face {
        font-family: "Virgil";
        src: url("https://excalidraw.com/Virgil.woff2");
      }
      @font-face {
        font-family: "Cascadia";
        src: url("https://excalidraw.com/Cascadia.woff2");
      }
      @font-face {
        font-family: "Assistant";
        src: url("https://excalidraw.com/Assistant-Regular.woff2");
      }
    </style>
    
  </defs>
  <rect x="0" y="0" width="2686.355611947003" height="4115.892763147765" fill="#111111"></rect><g stroke-linecap="round" transform="translate(1117.1764808552584 1025.6381896780679) rotate(0 158.0952380952382 81.90476190476193)"><path d="M32 0 C130.1 0, 228.2 0, 284.19 0 M32 0 C91.76 0, 151.52 0, 284.19 0 M284.19 0 C305.52 0, 316.19 10.67, 316.19 32 M284.19 0 C305.52 0, 316.19 10.67, 316.19 32 M316.19 32 C316.19 62.15, 316.19 92.29, 316.19 131.81 M316.19 32 C316.19 54.87, 316.19 77.74, 316.19 131.81 M316.19 131.81 C316.19 153.14, 305.52 163.81, 284.19 163.81 M316.19 131.81 C316.19 153.14, 305.52 163.81, 284.19 163.81 M284.19 163.81 C195.62 163.81, 107.05 163.81, 32 163.81 M284.19 163.81 C231.11 163.81, 178.02 163.81, 32 163.81 M32 163.81 C10.67 163.81, 0 153.14, 0 131.81 M32 163.81 C10.67 163.81, 0 153.14, 0 131.81 M0 131.81 C0 97.61, 0 63.41, 0 32 M0 131.81 C0 107.62, 0 83.44, 0 32 M0 32 C0 10.67, 10.67 0, 32 0 M0 32 C0 10.67, 10.67 0, 32 0" stroke="#a5d8ff" stroke-width="2" fill="none"></path></g><g transform="translate(1233.1517314627035 1085.0429515828298) rotate(0 42.11998748779297 22.5)"><text x="42.11998748779297" y="31.536" font-family="Virgil, Segoe UI Emoji" font-size="36px" fill="#ffffff" text-anchor="middle" style="white-space: pre;" direction="ltr" dominant-baseline="alphabetic">Login</text></g><g stroke-linecap="round" transform="translate(675.8796616252423 3512.4566489103186) rotate(0 158.0952380952382 81.90476190476193)"><path d="M32 0 C127 0, 222 0, 284.19 0 M32 0 C125.82 0, 219.63 0, 284.19 0 M284.19 0 C305.52 0, 316.19 10.67, 316.19 32 M284.19 0 C305.52 0, 316.19 10.67, 316.19 32 M316.19 32 C316.19 60.9, 316.19 89.8, 316.19 131.81 M316.19 32 C316.19 63.39, 316.19 94.79, 316.19 131.81 M316.19 131.81 C316.19 153.14, 305.52 163.81, 284.19 163.81 M316.19 131.81 C316.19 153.14, 305.52 163.81, 284.19 163.81 M284.19 163.81 C230.03 163.81, 175.87 163.81, 32 163.81 M284.19 163.81 C221.85 163.81, 159.51 163.81, 32 163.81 M32 163.81 C10.67 163.81, 0 153.14, 0 131.81 M32 163.81 C10.67 163.81, 0 153.14, 0 131.81 M0 131.81 C0 103.17, 0 74.52, 0 32 M0 131.81 C0 97.23, 0 62.65, 0 32 M0 32 C0 10.67, 10.67 0, 32 0 M0 32 C0 10.67, 10.67 0, 32 0" stroke="#a5d8ff" stroke-width="2" fill="none"></path></g><g transform="translate(779.542923402121 3571.8614108150805) rotate(0 54.431976318359375 22.5)"><text x="54.431976318359375" y="31.536" font-family="Virgil, Segoe UI Emoji" font-size="36px" fill="#ffffff" text-anchor="middle" style="white-space: pre;" direction="ltr" dominant-baseline="alphabetic">Option</text></g><g stroke-linecap="round" transform="translate(10 3519.134367930582) rotate(0 158.0952380952382 81.90476190476193)"><path d="M32 0 C96.8 0, 161.6 0, 284.19 0 M32 0 C104.56 0, 177.11 0, 284.19 0 M284.19 0 C305.52 0, 316.19 10.67, 316.19 32 M284.19 0 C305.52 0, 316.19 10.67, 316.19 32 M316.19 32 C316.19 69.1, 316.19 106.21, 316.19 131.81 M316.19 32 C316.19 55.45, 316.19 78.9, 316.19 131.81 M316.19 131.81 C316.19 153.14, 305.52 163.81, 284.19 163.81 M316.19 131.81 C316.19 153.14, 305.52 163.81, 284.19 163.81 M284.19 163.81 C205.84 163.81, 127.49 163.81, 32 163.81 M284.19 163.81 C191.16 163.81, 98.13 163.81, 32 163.81 M32 163.81 C10.67 163.81, 0 153.14, 0 131.81 M32 163.81 C10.67 163.81, 0 153.14, 0 131.81 M0 131.81 C0 109.41, 0 87.01, 0 32 M0 131.81 C0 102.48, 0 73.16, 0 32 M0 32 C0 10.67, 10.67 0, 32 0 M0 32 C0 10.67, 10.67 0, 32 0" stroke="#a5d8ff" stroke-width="2" fill="none"></path></g><g transform="translate(92.15326727004276 3578.5391298353443) rotate(0 75.94197082519531 22.5)"><text x="75.94197082519531" y="31.536" font-family="Virgil, Segoe UI Emoji" font-size="36px" fill="#ffffff" text-anchor="middle" style="white-space: pre;" direction="ltr" dominant-baseline="alphabetic">Anywhere</text></g><g stroke-linecap="round" transform="translate(1679.1271457589557 1365.6381896780676) rotate(0 158.0952380952382 81.90476190476193)"><path d="M32 0 C121.89 0, 211.79 0, 284.19 0 M32 0 C108.09 0, 184.17 0, 284.19 0 M284.19 0 C305.52 0, 316.19 10.67, 316.19 32 M284.19 0 C305.52 0, 316.19 10.67, 316.19 32 M316.19 32 C316.19 65.14, 316.19 98.27, 316.19 131.81 M316.19 32 C316.19 56.46, 316.19 80.91, 316.19 131.81 M316.19 131.81 C316.19 153.14, 305.52 163.81, 284.19 163.81 M316.19 131.81 C316.19 153.14, 305.52 163.81, 284.19 163.81 M284.19 163.81 C198.07 163.81, 111.96 163.81, 32 163.81 M284.19 163.81 C207.29 163.81, 130.39 163.81, 32 163.81 M32 163.81 C10.67 163.81, 0 153.14, 0 131.81 M32 163.81 C10.67 163.81, 0 153.14, 0 131.81 M0 131.81 C0 107.94, 0 84.08, 0 32 M0 131.81 C0 109.27, 0 86.73, 0 32 M0 32 C0 10.67, 10.67 0, 32 0 M0 32 C0 10.67, 10.67 0, 32 0" stroke="#a5d8ff" stroke-width="2" fill="none"></path></g><g transform="translate(1764.6824210856394 1425.0429515828296) rotate(0 72.53996276855469 22.5)"><text x="72.53996276855469" y="31.536" font-family="Virgil, Segoe UI Emoji" font-size="36px" fill="#ffffff" text-anchor="middle" style="white-space: pre;" direction="ltr" dominant-baseline="alphabetic">Register</text></g><g stroke-linecap="round" transform="translate(1131.41286004467 1926.4953325352108) rotate(0 158.0952380952382 81.90476190476193)"><path d="M32 0 C113.18 0, 194.35 0, 284.19 0 M32 0 C131.09 0, 230.18 0, 284.19 0 M284.19 0 C305.52 0, 316.19 10.67, 316.19 32 M284.19 0 C305.52 0, 316.19 10.67, 316.19 32 M316.19 32 C316.19 58.06, 316.19 84.11, 316.19 131.81 M316.19 32 C316.19 59.29, 316.19 86.57, 316.19 131.81 M316.19 131.81 C316.19 153.14, 305.52 163.81, 284.19 163.81 M316.19 131.81 C316.19 153.14, 305.52 163.81, 284.19 163.81 M284.19 163.81 C207.38 163.81, 130.58 163.81, 32 163.81 M284.19 163.81 C215.86 163.81, 147.53 163.81, 32 163.81 M32 163.81 C10.67 163.81, 0 153.14, 0 131.81 M32 163.81 C10.67 163.81, 0 153.14, 0 131.81 M0 131.81 C0 102.11, 0 72.4, 0 32 M0 131.81 C0 93.61, 0 55.4, 0 32 M0 32 C0 10.67, 10.67 0, 32 0 M0 32 C0 10.67, 10.67 0, 32 0" stroke="#a5d8ff" stroke-width="2" fill="none"></path></g><g transform="translate(1195.836131587174 1985.9000944399727) rotate(0 93.67196655273438 22.5)"><text x="93.67196655273438" y="31.536" font-family="Virgil, Segoe UI Emoji" font-size="36px" fill="#ffffff" text-anchor="middle" style="white-space: pre;" direction="ltr" dominant-baseline="alphabetic">Staff View</text></g><g stroke-linecap="round" transform="translate(1144.6043478633098 2341.899588625891) rotate(0 158.0952380952382 81.90476190476194)"><path d="M32 0 C103.19 0, 174.38 0, 284.19 0 M32 0 C92.31 0, 152.63 0, 284.19 0 M284.19 0 C305.52 0, 316.19 10.67, 316.19 32 M284.19 0 C305.52 0, 316.19 10.67, 316.19 32 M316.19 32 C316.19 63.9, 316.19 95.81, 316.19 131.81 M316.19 32 C316.19 67.92, 316.19 103.84, 316.19 131.81 M316.19 131.81 C316.19 153.14, 305.52 163.81, 284.19 163.81 M316.19 131.81 C316.19 153.14, 305.52 163.81, 284.19 163.81 M284.19 163.81 C219.94 163.81, 155.68 163.81, 32 163.81 M284.19 163.81 C232.13 163.81, 180.07 163.81, 32 163.81 M32 163.81 C10.67 163.81, 0 153.14, 0 131.81 M32 163.81 C10.67 163.81, 0 153.14, 0 131.81 M0 131.81 C0 110.71, 0 89.62, 0 32 M0 131.81 C0 97.75, 0 63.7, 0 32 M0 32 C0 10.67, 10.67 0, 32 0 M0 32 C0 10.67, 10.67 0, 32 0" stroke="#a5d8ff" stroke-width="2" fill="none"></path></g><g transform="translate(1208.415619894095 2401.3043505306528) rotate(0 94.28396606445312 22.5)"><text x="94.28396606445312" y="31.536" font-family="Virgil, Segoe UI Emoji" font-size="36px" fill="#ffffff" text-anchor="middle" style="white-space: pre;" direction="ltr" dominant-baseline="alphabetic">Staff List</text></g><g stroke-linecap="round" transform="translate(597.4128600446704 2346.4953325352108) rotate(0 158.0952380952382 81.90476190476194)"><path d="M32 0 C85.38 0, 138.76 0, 284.19 0 M32 0 C96.18 0, 160.36 0, 284.19 0 M284.19 0 C305.52 0, 316.19 10.67, 316.19 32 M284.19 0 C305.52 0, 316.19 10.67, 316.19 32 M316.19 32 C316.19 62.04, 316.19 92.07, 316.19 131.81 M316.19 32 C316.19 61.27, 316.19 90.54, 316.19 131.81 M316.19 131.81 C316.19 153.14, 305.52 163.81, 284.19 163.81 M316.19 131.81 C316.19 153.14, 305.52 163.81, 284.19 163.81 M284.19 163.81 C216.88 163.81, 149.56 163.81, 32 163.81 M284.19 163.81 C230.67 163.81, 177.14 163.81, 32 163.81 M32 163.81 C10.67 163.81, 0 153.14, 0 131.81 M32 163.81 C10.67 163.81, 0 153.14, 0 131.81 M0 131.81 C0 91.95, 0 52.09, 0 32 M0 131.81 C0 106.69, 0 81.58, 0 32 M0 32 C0 10.67, 10.67 0, 32 0 M0 32 C0 10.67, 10.67 0, 32 0" stroke="#a5d8ff" stroke-width="2" fill="none"></path></g><g transform="translate(650.0821414138344 2405.9000944399727) rotate(0 105.42595672607422 22.5)"><text x="105.42595672607422" y="31.536" font-family="Virgil, Segoe UI Emoji" font-size="36px" fill="#ffffff" text-anchor="middle" style="white-space: pre;" direction="ltr" dominant-baseline="alphabetic">Member List</text></g><g stroke-linecap="round" transform="translate(860.8776786602998 2931.181045607661) rotate(0 158.0952380952382 81.90476190476193)"><path d="M32 0 C105.49 0, 178.98 0, 284.19 0 M32 0 C89.21 0, 146.42 0, 284.19 0 M284.19 0 C305.52 0, 316.19 10.67, 316.19 32 M284.19 0 C305.52 0, 316.19 10.67, 316.19 32 M316.19 32 C316.19 71.22, 316.19 110.43, 316.19 131.81 M316.19 32 C316.19 56.8, 316.19 81.6, 316.19 131.81 M316.19 131.81 C316.19 153.14, 305.52 163.81, 284.19 163.81 M316.19 131.81 C316.19 153.14, 305.52 163.81, 284.19 163.81 M284.19 163.81 C183.78 163.81, 83.37 163.81, 32 163.81 M284.19 163.81 C186.35 163.81, 88.5 163.81, 32 163.81 M32 163.81 C10.67 163.81, 0 153.14, 0 131.81 M32 163.81 C10.67 163.81, 0 153.14, 0 131.81 M0 131.81 C0 106.82, 0 81.83, 0 32 M0 131.81 C0 104.29, 0 76.77, 0 32 M0 32 C0 10.67, 10.67 0, 32 0 M0 32 C0 10.67, 10.67 0, 32 0" stroke="#a5d8ff" stroke-width="2" fill="none"></path></g><g transform="translate(959.2129375074911 2990.5858075124224) rotate(0 59.759979248046875 22.5)"><text x="59.759979248046875" y="31.536" font-family="Virgil, Segoe UI Emoji" font-size="36px" fill="#ffffff" text-anchor="middle" style="white-space: pre;" direction="ltr" dominant-baseline="alphabetic">Change</text></g><g stroke-linecap="round" transform="translate(1349.222384002483 2931.181045440587) rotate(0 158.0952380952382 81.90476190476193)"><path d="M32 0 C100.81 0, 169.62 0, 284.19 0 M32 0 C121.65 0, 211.31 0, 284.19 0 M284.19 0 C305.52 0, 316.19 10.67, 316.19 32 M284.19 0 C305.52 0, 316.19 10.67, 316.19 32 M316.19 32 C316.19 66.04, 316.19 100.08, 316.19 131.81 M316.19 32 C316.19 54.4, 316.19 76.81, 316.19 131.81 M316.19 131.81 C316.19 153.14, 305.52 163.81, 284.19 163.81 M316.19 131.81 C316.19 153.14, 305.52 163.81, 284.19 163.81 M284.19 163.81 C220.99 163.81, 157.8 163.81, 32 163.81 M284.19 163.81 C216.19 163.81, 148.19 163.81, 32 163.81 M32 163.81 C10.67 163.81, 0 153.14, 0 131.81 M32 163.81 C10.67 163.81, 0 153.14, 0 131.81 M0 131.81 C0 103.3, 0 74.78, 0 32 M0 131.81 C0 109.44, 0 87.06, 0 32 M0 32 C0 10.67, 10.67 0, 32 0 M0 32 C0 10.67, 10.67 0, 32 0" stroke="#a5d8ff" stroke-width="2" fill="none"></path></g><g transform="translate(1446.1176480376625 2990.5858073453487) rotate(0 61.199974060058594 22.5)"><text x="61.199974060058594" y="31.536" font-family="Virgil, Segoe UI Emoji" font-size="36px" fill="#ffffff" text-anchor="middle" style="white-space: pre;" direction="ltr" dominant-baseline="alphabetic">Create</text></g><g stroke-linecap="round" transform="translate(372.53297339206654 2933.0432758627717) rotate(0 158.0952380952382 81.90476190476193)"><path d="M32 0 C92.46 0, 152.93 0, 284.19 0 M32 0 C104.76 0, 177.52 0, 284.19 0 M284.19 0 C305.52 0, 316.19 10.67, 316.19 32 M284.19 0 C305.52 0, 316.19 10.67, 316.19 32 M316.19 32 C316.19 53.04, 316.19 74.08, 316.19 131.81 M316.19 32 C316.19 60.09, 316.19 88.17, 316.19 131.81 M316.19 131.81 C316.19 153.14, 305.52 163.81, 284.19 163.81 M316.19 131.81 C316.19 153.14, 305.52 163.81, 284.19 163.81 M284.19 163.81 C200.01 163.81, 115.84 163.81, 32 163.81 M284.19 163.81 C216.85 163.81, 149.51 163.81, 32 163.81 M32 163.81 C10.67 163.81, 0 153.14, 0 131.81 M32 163.81 C10.67 163.81, 0 153.14, 0 131.81 M0 131.81 C0 99.73, 0 67.65, 0 32 M0 131.81 C0 92.51, 0 53.21, 0 32 M0 32 C0 10.67, 10.67 0, 32 0 M0 32 C0 10.67, 10.67 0, 32 0" stroke="#a5d8ff" stroke-width="2" fill="none"></path></g><g transform="translate(464.7122416386719 2992.4480377675336) rotate(0 65.91596984863281 22.5)"><text x="65.91596984863281" y="31.536" font-family="Virgil, Segoe UI Emoji" font-size="36px" fill="#ffffff" text-anchor="middle" style="white-space: pre;" direction="ltr" dominant-baseline="alphabetic">Inspect</text></g><g stroke-linecap="round" transform="translate(1665.41286004467 2352.4953325352108) rotate(0 158.0952380952382 81.90476190476194)"><path d="M32 0 C125.51 0, 219.02 0, 284.19 0 M32 0 C122.87 0, 213.74 0, 284.19 0 M284.19 0 C305.52 0, 316.19 10.67, 316.19 32 M284.19 0 C305.52 0, 316.19 10.67, 316.19 32 M316.19 32 C316.19 66.93, 316.19 101.86, 316.19 131.81 M316.19 32 C316.19 69.76, 316.19 107.51, 316.19 131.81 M316.19 131.81 C316.19 153.14, 305.52 163.81, 284.19 163.81 M316.19 131.81 C316.19 153.14, 305.52 163.81, 284.19 163.81 M284.19 163.81 C226.9 163.81, 169.61 163.81, 32 163.81 M284.19 163.81 C208.21 163.81, 132.24 163.81, 32 163.81 M32 163.81 C10.67 163.81, 0 153.14, 0 131.81 M32 163.81 C10.67 163.81, 0 153.14, 0 131.81 M0 131.81 C0 108.73, 0 85.65, 0 32 M0 131.81 C0 111.32, 0 90.82, 0 32 M0 32 C0 10.67, 10.67 0, 32 0 M0 32 C0 10.67, 10.67 0, 32 0" stroke="#a5d8ff" stroke-width="2" fill="none"></path></g><g transform="translate(1711.3501391555333 2411.9000944399727) rotate(0 112.15795898437494 22.5)"><text x="112.157958984375" y="31.536" font-family="Virgil, Segoe UI Emoji" font-size="36px" fill="#ffffff" text-anchor="middle" style="white-space: pre;" direction="ltr" dominant-baseline="alphabetic">Gym Balance</text></g><g stroke-linecap="round" transform="translate(1101.0319076637193 1309.0191420590197) rotate(0 180.8333333333332 174.16666666666663)"><path d="M226.25 43.75 C253.48 70.18, 280.72 96.61, 316.42 131.25 M226.25 43.75 C246.91 63.8, 267.57 83.85, 316.42 131.25 M316.42 131.25 C361.67 175, 361.67 175, 316.42 218.75 M316.42 131.25 C361.67 175, 361.67 175, 316.42 218.75 M316.42 218.75 C284.75 248.9, 253.08 279.04, 226.25 304.58 M316.42 218.75 C297.44 236.82, 278.46 254.89, 226.25 304.58 M226.25 304.58 C181 348.33, 181 348.33, 135.75 304.58 M226.25 304.58 C181 348.33, 181 348.33, 135.75 304.58 M135.75 304.58 C104.74 275.17, 73.73 245.76, 45.25 218.75 M135.75 304.58 C113.82 283.79, 91.89 262.99, 45.25 218.75 M45.25 218.75 C0 175, 0 175, 45.25 131.25 M45.25 218.75 C0 175, 0 175, 45.25 131.25 M45.25 131.25 C73.18 104.24, 101.11 77.24, 135.75 43.75 M45.25 131.25 C67.05 110.17, 88.85 89.09, 135.75 43.75 M135.75 43.75 C181 0, 181 0, 226.25 43.75 M135.75 43.75 C181 0, 181 0, 226.25 43.75" stroke="#b2f2bb" stroke-width="2" fill="none"></path></g><g transform="translate(1217.652607228335 1460.602475392353) rotate(0 64.29596710205078 22.5)"><text x="64.29596710205078" y="31.536" font-family="Virgil, Segoe UI Emoji" font-size="36px" fill="#ffffff" text-anchor="middle" style="white-space: pre;" direction="ltr" dominant-baseline="alphabetic">Exists?</text></g><g stroke-linecap="round" transform="translate(1359.2346857117716 3422.2994987542515) rotate(0 180.8333333333332 174.16666666666663)"><path d="M226.25 43.75 C259.77 76.28, 293.29 108.81, 316.42 131.25 M226.25 43.75 C247.43 64.31, 268.62 84.86, 316.42 131.25 M316.42 131.25 C361.67 175, 361.67 175, 316.42 218.75 M316.42 131.25 C361.67 175, 361.67 175, 316.42 218.75 M316.42 218.75 C288.4 245.42, 260.39 272.08, 226.25 304.58 M316.42 218.75 C283.15 250.41, 249.89 282.08, 226.25 304.58 M226.25 304.58 C181 348.33, 181 348.33, 135.75 304.58 M226.25 304.58 C181 348.33, 181 348.33, 135.75 304.58 M135.75 304.58 C115.44 285.32, 95.13 266.06, 45.25 218.75 M135.75 304.58 C109.16 279.36, 82.57 254.15, 45.25 218.75 M45.25 218.75 C0 175, 0 175, 45.25 131.25 M45.25 218.75 C0 175, 0 175, 45.25 131.25 M45.25 131.25 C64.69 112.45, 84.13 93.66, 135.75 43.75 M45.25 131.25 C76.38 101.15, 107.51 71.06, 135.75 43.75 M135.75 43.75 C181 0, 181 0, 226.25 43.75 M135.75 43.75 C181 0, 181 0, 226.25 43.75" stroke="#b2f2bb" stroke-width="2" fill="none"></path></g><g transform="translate(1471.6253666606647 3573.882832087585) rotate(0 68.52598571777344 22.5)"><text x="68.52598571777344" y="31.536" font-family="Virgil, Segoe UI Emoji" font-size="36px" fill="#ffffff" text-anchor="middle" style="white-space: pre;" direction="ltr" dominant-baseline="alphabetic">Logout?</text></g><g stroke-linecap="round" transform="translate(1171.0319076637193 666.6858087256865) rotate(0 111.6666666666668 111.66666666666674)"><path d="M223.33 111.67 C223.33 115.1, 223.17 118.55, 222.86 121.97 C222.54 125.39, 222.06 128.81, 221.43 132.19 C220.8 135.56, 220.01 138.92, 219.07 142.23 C218.13 145.53, 217.03 148.8, 215.79 152.01 C214.55 155.21, 213.16 158.37, 211.63 161.44 C210.1 164.52, 208.42 167.53, 206.61 170.45 C204.8 173.37, 202.85 176.22, 200.78 178.96 C198.71 181.7, 196.5 184.36, 194.19 186.9 C191.88 189.43, 189.43 191.88, 186.9 194.19 C184.36 196.5, 181.7 198.71, 178.96 200.78 C176.22 202.85, 173.37 204.8, 170.45 206.61 C167.53 208.42, 164.52 210.1, 161.44 211.63 C158.37 213.16, 155.21 214.55, 152.01 215.79 C148.8 217.03, 145.53 218.13, 142.23 219.07 C138.92 220.01, 135.56 220.8, 132.19 221.43 C128.81 222.06, 125.39 222.54, 121.97 222.86 C118.55 223.17, 115.1 223.33, 111.67 223.33 C108.23 223.33, 104.78 223.17, 101.36 222.86 C97.94 222.54, 94.52 222.06, 91.15 221.43 C87.77 220.8, 84.41 220.01, 81.11 219.07 C77.8 218.13, 74.53 217.03, 71.33 215.79 C68.13 214.55, 64.97 213.16, 61.89 211.63 C58.82 210.1, 55.8 208.42, 52.88 206.61 C49.96 204.8, 47.11 202.85, 44.37 200.78 C41.63 198.71, 38.98 196.5, 36.44 194.19 C33.9 191.88, 31.46 189.43, 29.14 186.9 C26.83 184.36, 24.62 181.7, 22.55 178.96 C20.49 176.22, 18.53 173.37, 16.73 170.45 C14.92 167.53, 13.24 164.52, 11.71 161.44 C10.18 158.37, 8.78 155.21, 7.54 152.01 C6.3 148.8, 5.2 145.53, 4.26 142.23 C3.32 138.92, 2.53 135.56, 1.9 132.19 C1.27 128.81, 0.79 125.39, 0.48 121.97 C0.16 118.55, 0 115.1, 0 111.67 C0 108.23, 0.16 104.78, 0.48 101.36 C0.79 97.94, 1.27 94.52, 1.9 91.15 C2.53 87.77, 3.32 84.41, 4.26 81.11 C5.2 77.8, 6.3 74.53, 7.54 71.33 C8.78 68.13, 10.18 64.97, 11.71 61.89 C13.24 58.82, 14.92 55.8, 16.73 52.88 C18.53 49.96, 20.49 47.11, 22.55 44.37 C24.62 41.63, 26.83 38.98, 29.14 36.44 C31.46 33.9, 33.9 31.46, 36.44 29.14 C38.98 26.83, 41.63 24.62, 44.37 22.55 C47.11 20.49, 49.96 18.53, 52.88 16.73 C55.8 14.92, 58.82 13.24, 61.89 11.71 C64.97 10.18, 68.13 8.78, 71.33 7.54 C74.53 6.3, 77.8 5.2, 81.11 4.26 C84.41 3.32, 87.77 2.53, 91.15 1.9 C94.52 1.27, 97.94 0.79, 101.36 0.48 C104.78 0.16, 108.23 0, 111.67 0 C115.1 0, 118.55 0.16, 121.97 0.48 C125.39 0.79, 128.81 1.27, 132.19 1.9 C135.56 2.53, 138.92 3.32, 142.23 4.26 C145.53 5.2, 148.8 6.3, 152.01 7.54 C155.21 8.78, 158.37 10.18, 161.44 11.71 C164.52 13.24, 167.53 14.92, 170.45 16.73 C173.37 18.53, 176.22 20.49, 178.96 22.55 C181.7 24.62, 184.36 26.83, 186.9 29.14 C189.43 31.46, 191.88 33.9, 194.19 36.44 C196.5 38.98, 198.71 41.63, 200.78 44.37 C202.85 47.11, 204.8 49.96, 206.61 52.88 C208.42 55.8, 210.1 58.82, 211.63 61.89 C213.16 64.97, 214.55 68.13, 215.79 71.33 C217.03 74.53, 218.13 77.8, 219.07 81.11 C220.01 84.41, 220.8 87.77, 221.43 91.15 C222.06 94.52, 222.54 97.94, 222.86 101.36 C223.17 104.78, 223.25 109.95, 223.33 111.67 C223.41 113.38, 223.41 109.95, 223.33 111.67" stroke="#ffc9c9" stroke-width="2" fill="none"></path></g><g transform="translate(1231.708325947986 755.8922181598552) rotate(0 51.029991149902344 22.5)"><text x="51.029991149902344" y="31.536" font-family="Virgil, Segoe UI Emoji" font-size="36px" fill="#ffc9c9" text-anchor="middle" style="white-space: pre;" direction="ltr" dominant-baseline="alphabetic">Start</text></g><g stroke-linecap="round" transform="translate(2028.528190678817 3450.080428361954) rotate(0 111.66666666666674 111.66666666666674)"><path d="M223.33 111.67 C223.33 115.1, 223.17 118.55, 222.86 121.97 C222.54 125.39, 222.06 128.81, 221.43 132.19 C220.8 135.56, 220.01 138.92, 219.07 142.23 C218.13 145.53, 217.03 148.8, 215.79 152.01 C214.55 155.21, 213.16 158.37, 211.63 161.44 C210.1 164.52, 208.42 167.53, 206.61 170.45 C204.8 173.37, 202.85 176.22, 200.78 178.96 C198.71 181.7, 196.5 184.36, 194.19 186.9 C191.88 189.43, 189.43 191.88, 186.9 194.19 C184.36 196.5, 181.7 198.71, 178.96 200.78 C176.22 202.85, 173.37 204.8, 170.45 206.61 C167.53 208.42, 164.52 210.1, 161.44 211.63 C158.37 213.16, 155.21 214.55, 152.01 215.79 C148.8 217.03, 145.53 218.13, 142.23 219.07 C138.92 220.01, 135.56 220.8, 132.19 221.43 C128.81 222.06, 125.39 222.54, 121.97 222.86 C118.55 223.17, 115.1 223.33, 111.67 223.33 C108.23 223.33, 104.78 223.17, 101.36 222.86 C97.94 222.54, 94.52 222.06, 91.15 221.43 C87.77 220.8, 84.41 220.01, 81.11 219.07 C77.8 218.13, 74.53 217.03, 71.33 215.79 C68.13 214.55, 64.97 213.16, 61.89 211.63 C58.82 210.1, 55.8 208.42, 52.88 206.61 C49.96 204.8, 47.11 202.85, 44.37 200.78 C41.63 198.71, 38.98 196.5, 36.44 194.19 C33.9 191.88, 31.46 189.43, 29.14 186.9 C26.83 184.36, 24.62 181.7, 22.55 178.96 C20.49 176.22, 18.53 173.37, 16.73 170.45 C14.92 167.53, 13.24 164.52, 11.71 161.44 C10.18 158.37, 8.78 155.21, 7.54 152.01 C6.3 148.8, 5.2 145.53, 4.26 142.23 C3.32 138.92, 2.53 135.56, 1.9 132.19 C1.27 128.81, 0.79 125.39, 0.48 121.97 C0.16 118.55, 0 115.1, 0 111.67 C0 108.23, 0.16 104.78, 0.48 101.36 C0.79 97.94, 1.27 94.52, 1.9 91.15 C2.53 87.77, 3.32 84.41, 4.26 81.11 C5.2 77.8, 6.3 74.53, 7.54 71.33 C8.78 68.13, 10.18 64.97, 11.71 61.89 C13.24 58.82, 14.92 55.8, 16.73 52.88 C18.53 49.96, 20.49 47.11, 22.55 44.37 C24.62 41.63, 26.83 38.98, 29.14 36.44 C31.46 33.9, 33.9 31.46, 36.44 29.14 C38.98 26.83, 41.63 24.62, 44.37 22.55 C47.11 20.49, 49.96 18.53, 52.88 16.73 C55.8 14.92, 58.82 13.24, 61.89 11.71 C64.97 10.18, 68.13 8.78, 71.33 7.54 C74.53 6.3, 77.8 5.2, 81.11 4.26 C84.41 3.32, 87.77 2.53, 91.15 1.9 C94.52 1.27, 97.94 0.79, 101.36 0.48 C104.78 0.16, 108.23 0, 111.67 0 C115.1 0, 118.55 0.16, 121.97 0.48 C125.39 0.79, 128.81 1.27, 132.19 1.9 C135.56 2.53, 138.92 3.32, 142.23 4.26 C145.53 5.2, 148.8 6.3, 152.01 7.54 C155.21 8.78, 158.37 10.18, 161.44 11.71 C164.52 13.24, 167.53 14.92, 170.45 16.73 C173.37 18.53, 176.22 20.49, 178.96 22.55 C181.7 24.62, 184.36 26.83, 186.9 29.14 C189.43 31.46, 191.88 33.9, 194.19 36.44 C196.5 38.98, 198.71 41.63, 200.78 44.37 C202.85 47.11, 204.8 49.96, 206.61 52.88 C208.42 55.8, 210.1 58.82, 211.63 61.89 C213.16 64.97, 214.55 68.13, 215.79 71.33 C217.03 74.53, 218.13 77.8, 219.07 81.11 C220.01 84.41, 220.8 87.77, 221.43 91.15 C222.06 94.52, 222.54 97.94, 222.86 101.36 C223.17 104.78, 223.25 109.95, 223.33 111.67 C223.41 113.38, 223.41 109.95, 223.33 111.67" stroke="#ffc9c9" stroke-width="2" fill="none"></path></g><g transform="translate(2109.4546089630835 3539.286837796123) rotate(0 30.779991149902344 22.5)"><text x="30.779991149902344" y="31.536" font-family="Virgil, Segoe UI Emoji" font-size="36px" fill="#ffc9c9" text-anchor="middle" style="white-space: pre;" direction="ltr" dominant-baseline="alphabetic">End</text></g><g stroke-linecap="round"><g transform="translate(1276.3176219494328 897.8762849161642) rotate(0 2.02683618408372 60)"><path d="M0 0 C0.68 20, 3.38 100, 4.05 120 M0 0 C0.68 20, 3.38 100, 4.05 120" stroke="#ffffff" stroke-width="2" fill="none"></path></g><g transform="translate(1276.3176219494328 897.8762849161642) rotate(0 2.02683618408372 60)"><path d="M-5.29 96.81 C-2.3 104.22, 0.69 111.64, 4.05 120 M-5.29 96.81 C-1.92 105.16, 1.44 113.5, 4.05 120" stroke="#ffffff" stroke-width="2" fill="none"></path></g><g transform="translate(1276.3176219494328 897.8762849161642) rotate(0 2.02683618408372 60)"><path d="M11.81 96.23 C9.33 103.83, 6.85 111.43, 4.05 120 M11.81 96.23 C9.02 104.79, 6.23 113.34, 4.05 120" stroke="#ffffff" stroke-width="2" fill="none"></path></g></g><mask></mask><g stroke-linecap="round"><g transform="translate(1278.9330158168189 1195.0191420590213) rotate(0 -0.2386593320064776 57.94772825654729)"><path d="M0 0 C-0.08 19.32, -0.4 96.58, -0.48 115.9 M0 0 C-0.08 19.32, -0.4 96.58, -0.48 115.9" stroke="#ffffff" stroke-width="2" fill="none"></path></g><g transform="translate(1278.9330158168189 1195.0191420590213) rotate(0 -0.2386593320064776 57.94772825654729)"><path d="M-8.93 92.37 C-6.39 99.45, -3.84 106.53, -0.48 115.9 M-8.93 92.37 C-6.45 99.27, -3.97 106.17, -0.48 115.9" stroke="#ffffff" stroke-width="2" fill="none"></path></g><g transform="translate(1278.9330158168189 1195.0191420590213) rotate(0 -0.2386593320064776 57.94772825654729)"><path d="M8.17 92.44 C5.57 99.5, 2.97 106.56, -0.48 115.9 M8.17 92.44 C5.63 99.32, 3.1 106.2, -0.48 115.9" stroke="#ffffff" stroke-width="2" fill="none"></path></g></g><mask></mask><g stroke-linecap="round"><g transform="translate(1100.1056884224224 1483.5627940265294) rotate(0 -87.04911321055246 -190.06245724801943)"><path d="M0 0 C-31.11 -5, -156.73 26.93, -186.65 -29.97 C-216.56 -86.87, -212.7 -283.04, -179.5 -341.4 C-146.3 -399.76, -19.46 -373.67, 12.55 -380.12 M0 0 C-31.11 -5, -156.73 26.93, -186.65 -29.97 C-216.56 -86.87, -212.7 -283.04, -179.5 -341.4 C-146.3 -399.76, -19.46 -373.67, 12.55 -380.12" stroke="#ffffff" stroke-width="2" fill="none"></path></g><g transform="translate(1100.1056884224224 1483.5627940265294) rotate(0 -87.04911321055246 -190.06245724801943)"><path d="M-10.91 -371.49 C-1.7 -374.88, 7.52 -378.28, 12.55 -380.12 M-10.91 -371.49 C-5.08 -373.63, 0.75 -375.78, 12.55 -380.12" stroke="#ffffff" stroke-width="2" fill="none"></path></g><g transform="translate(1100.1056884224224 1483.5627940265294) rotate(0 -87.04911321055246 -190.06245724801943)"><path d="M-10.98 -388.59 C-1.73 -385.26, 7.51 -381.94, 12.55 -380.12 M-10.98 -388.59 C-5.13 -386.49, 0.71 -384.38, 12.55 -380.12" stroke="#ffffff" stroke-width="2" fill="none"></path></g></g><mask></mask><g stroke-linecap="round"><g transform="translate(1545.7805695573973 3754.994002665664) rotate(0 -339.2561538342727 86.07032377727398)"><path d="M0 0 C-10.02 41.64, 40.81 208.9, -60.1 249.87 C-161.01 290.84, -502.4 300.42, -605.46 245.82 C-708.53 191.22, -666.34 -23.8, -678.51 -77.73 M0 0 C-10.02 41.64, 40.81 208.9, -60.1 249.87 C-161.01 290.84, -502.4 300.42, -605.46 245.82 C-708.53 191.22, -666.34 -23.8, -678.51 -77.73" stroke="#ffffff" stroke-width="2" fill="none"></path></g><g transform="translate(1545.7805695573973 3754.994002665664) rotate(0 -339.2561538342727 86.07032377727398)"><path d="M-669.49 -54.41 C-671.39 -59.33, -673.3 -64.24, -678.51 -77.73 M-669.49 -54.41 C-672.03 -60.97, -674.57 -67.53, -678.51 -77.73" stroke="#ffffff" stroke-width="2" fill="none"></path></g><g transform="translate(1545.7805695573973 3754.994002665664) rotate(0 -339.2561538342727 86.07032377727398)"><path d="M-686.59 -54.07 C-684.89 -59.06, -683.18 -64.04, -678.51 -77.73 M-686.59 -54.07 C-684.32 -60.73, -682.04 -67.38, -678.51 -77.73" stroke="#ffffff" stroke-width="2" fill="none"></path></g></g><mask></mask><g stroke-linecap="round"><g transform="translate(1281.7497358150483 1658.3457822698738) rotate(0 3.0404180163452565 133.05096560885985)"><path d="M0 0 C1.01 44.35, 5.07 221.75, 6.08 266.1 M0 0 C1.01 44.35, 5.07 221.75, 6.08 266.1" stroke="#ffffff" stroke-width="2" fill="none"></path></g><g transform="translate(1281.7497358150483 1658.3457822698738) rotate(0 3.0404180163452565 133.05096560885985)"><path d="M-3 242.81 C0.18 250.96, 3.35 259.11, 6.08 266.1 M-3 242.81 C0.43 251.62, 3.87 260.43, 6.08 266.1" stroke="#ffffff" stroke-width="2" fill="none"></path></g><g transform="translate(1281.7497358150483 1658.3457822698738) rotate(0 3.0404180163452565 133.05096560885985)"><path d="M14.09 242.42 C11.29 250.71, 8.49 259, 6.08 266.1 M14.09 242.42 C11.06 251.38, 8.03 260.34, 6.08 266.1" stroke="#ffffff" stroke-width="2" fill="none"></path></g></g><mask></mask><g stroke-linecap="round"><g transform="translate(1289.4919036155984 2091.3048563447346) rotate(0 2.6802101426831086 124.79736614057803)"><path d="M0 0 C0.89 41.6, 4.47 208, 5.36 249.59 M0 0 C0.89 41.6, 4.47 208, 5.36 249.59" stroke="#ffffff" stroke-width="2" fill="none"></path></g><g transform="translate(1289.4919036155984 2091.3048563447346) rotate(0 2.6802101426831086 124.79736614057803)"><path d="M9.05 23.3 C5.87 15.12, 2.69 6.93, 0 0 M9.05 23.3 C7.15 18.4, 5.24 13.49, 0 0" stroke="#ffffff" stroke-width="2" fill="none"></path></g><g transform="translate(1289.4919036155984 2091.3048563447346) rotate(0 2.6802101426831086 124.79736614057803)"><path d="M-8.04 23.67 C-5.22 15.36, -2.39 7.04, 0 0 M-8.04 23.67 C-6.35 18.69, -4.66 13.71, 0 0" stroke="#ffffff" stroke-width="2" fill="none"></path></g><g transform="translate(1289.4919036155984 2091.3048563447346) rotate(0 2.6802101426831086 124.79736614057803)"><path d="M-3.69 226.29 C-0.51 234.48, 2.67 242.66, 5.36 249.59 M-3.69 226.29 C-1.79 231.2, 0.12 236.1, 5.36 249.59" stroke="#ffffff" stroke-width="2" fill="none"></path></g><g transform="translate(1289.4919036155984 2091.3048563447346) rotate(0 2.6802101426831086 124.79736614057803)"><path d="M13.4 225.92 C10.58 234.24, 7.75 242.55, 5.36 249.59 M13.4 225.92 C11.71 230.91, 10.02 235.89, 5.36 249.59" stroke="#ffffff" stroke-width="2" fill="none"></path></g></g><mask></mask><g stroke-linecap="round"><g transform="translate(1124.41286004467 2011.21724950713) rotate(0 -181.8868830463971 166.3295177045175)"><path d="M0 0 C-56.15 5.11, -276.28 -24.78, -336.9 30.66 C-397.53 86.1, -359.3 282.33, -363.77 332.66 M0 0 C-56.15 5.11, -276.28 -24.78, -336.9 30.66 C-397.53 86.1, -359.3 282.33, -363.77 332.66" stroke="#ffffff" stroke-width="2" fill="none"></path></g><g transform="translate(1124.41286004467 2011.21724950713) rotate(0 -181.8868830463971 166.3295177045175)"><path d="M-23.47 8.6 C-18.43 6.76, -13.39 4.91, 0 0 M-23.47 8.6 C-17.67 6.48, -11.87 4.35, 0 0" stroke="#ffffff" stroke-width="2" fill="none"></path></g><g transform="translate(1124.41286004467 2011.21724950713) rotate(0 -181.8868830463971 166.3295177045175)"><path d="M-23.51 -8.5 C-18.46 -6.67, -13.41 -4.85, 0 0 M-23.51 -8.5 C-17.7 -6.4, -11.89 -4.3, 0 0" stroke="#ffffff" stroke-width="2" fill="none"></path></g><g transform="translate(1124.41286004467 2011.21724950713) rotate(0 -181.8868830463971 166.3295177045175)"><path d="M-373.44 309.6 C-371.36 314.55, -369.29 319.51, -363.77 332.66 M-373.44 309.6 C-371.05 315.3, -368.66 321, -363.77 332.66" stroke="#ffffff" stroke-width="2" fill="none"></path></g><g transform="translate(1124.41286004467 2011.21724950713) rotate(0 -181.8868830463971 166.3295177045175)"><path d="M-356.36 308.79 C-357.95 313.91, -359.54 319.04, -363.77 332.66 M-356.36 308.79 C-358.19 314.69, -360.02 320.59, -363.77 332.66" stroke="#ffffff" stroke-width="2" fill="none"></path></g></g><mask></mask><g stroke-linecap="round"><g transform="translate(1450.6033362351463 2014.5627179799562) rotate(0 183.1601547631334 168.46630727762704)"><path d="M0 0 C60.15 3.55, 299.85 -34.84, 360.9 21.31 C421.96 77.47, 365.42 284.33, 366.32 336.93 M0 0 C60.15 3.55, 299.85 -34.84, 360.9 21.31 C421.96 77.47, 365.42 284.33, 366.32 336.93" stroke="#ffffff" stroke-width="2" fill="none"></path></g><g transform="translate(1450.6033362351463 2014.5627179799562) rotate(0 183.1601547631334 168.46630727762704)"><path d="M23.25 -9.2 C16.02 -6.34, 8.8 -3.48, 0 0 M23.25 -9.2 C14.67 -5.8, 6.1 -2.41, 0 0" stroke="#ffffff" stroke-width="2" fill="none"></path></g><g transform="translate(1450.6033362351463 2014.5627179799562) rotate(0 183.1601547631334 168.46630727762704)"><path d="M23.72 7.9 C16.35 5.44, 8.98 2.99, 0 0 M23.72 7.9 C14.97 4.98, 6.22 2.07, 0 0" stroke="#ffffff" stroke-width="2" fill="none"></path></g><g transform="translate(1450.6033362351463 2014.5627179799562) rotate(0 183.1601547631334 168.46630727762704)"><path d="M360.71 312.57 C362.46 320.14, 364.2 327.71, 366.32 336.93 M360.71 312.57 C362.78 321.56, 364.85 330.54, 366.32 336.93" stroke="#ffffff" stroke-width="2" fill="none"></path></g><g transform="translate(1450.6033362351463 2014.5627179799562) rotate(0 183.1601547631334 168.46630727762704)"><path d="M377.69 314.67 C374.15 321.58, 370.62 328.5, 366.32 336.93 M377.69 314.67 C373.49 322.88, 369.3 331.09, 366.32 336.93" stroke="#ffffff" stroke-width="2" fill="none"></path></g></g><mask></mask><g transform="translate(1323.5080981399103 1667.876284916165) rotate(0 28.907981872558594 22.5)"><text x="0" y="31.536" font-family="Virgil, Segoe UI Emoji" font-size="36px" fill="#ffffff" text-anchor="start" style="white-space: pre;" direction="ltr" dominant-baseline="alphabetic">Yes</text></g><g transform="translate(809.5080981399105 1273.8762849161653) rotate(0 21.563995361328125 22.5)"><text x="0" y="31.536" font-family="Virgil, Segoe UI Emoji" font-size="36px" fill="#ffffff" text-anchor="start" style="white-space: pre;" direction="ltr" dominant-baseline="alphabetic">No</text></g><g transform="translate(1230.6041734372634 4060.892763147765) rotate(0 21.563995361328125 22.5)"><text x="0" y="31.536" font-family="Virgil, Segoe UI Emoji" font-size="36px" fill="#ffffff" text-anchor="start" style="white-space: pre;" direction="ltr" dominant-baseline="alphabetic">No</text></g><g transform="translate(1823.0306620194578 3512.570809926391) rotate(0 28.907981872558594 22.5)"><text x="0" y="31.536" font-family="Virgil, Segoe UI Emoji" font-size="36px" fill="#ffffff" text-anchor="start" style="white-space: pre;" direction="ltr" dominant-baseline="alphabetic">Yes</text></g><g stroke-linecap="round"><g transform="translate(1434.3669570457346 1104.2254750998454) rotate(0 200.5705705470878 129.82540490815984)"><path d="M0 0 C59.86 6.28, 292.28 -5.62, 359.14 37.65 C426 80.93, 394.14 222.65, 401.14 259.65 M0 0 C59.86 6.28, 292.28 -5.62, 359.14 37.65 C426 80.93, 394.14 222.65, 401.14 259.65" stroke="#ffffff" stroke-width="2" fill="none"></path></g><g transform="translate(1434.3669570457346 1104.2254750998454) rotate(0 200.5705705470878 129.82540490815984)"><path d="M392.79 236.09 C395.58 243.95, 398.37 251.82, 401.14 259.65 M392.79 236.09 C395.02 242.38, 397.25 248.67, 401.14 259.65" stroke="#ffffff" stroke-width="2" fill="none"></path></g><g transform="translate(1434.3669570457346 1104.2254750998454) rotate(0 200.5705705470878 129.82540490815984)"><path d="M409.89 236.23 C406.97 244.05, 404.05 251.87, 401.14 259.65 M409.89 236.23 C407.55 242.49, 405.22 248.74, 401.14 259.65" stroke="#ffffff" stroke-width="2" fill="none"></path></g></g><mask></mask><g stroke-linecap="round"><g transform="translate(1843.7649348311918 1530.7674013900569) rotate(0 -278.1284183456406 197.04931772172426)"><path d="M0 0 C-4.41 38.24, 56.17 185.83, -26.47 229.45 C-109.1 273.08, -407.52 234.31, -495.82 261.75 C-584.11 289.19, -546.18 372.04, -556.26 394.1 M0 0 C-4.41 38.24, 56.17 185.83, -26.47 229.45 C-109.1 273.08, -407.52 234.31, -495.82 261.75 C-584.11 289.19, -546.18 372.04, -556.26 394.1" stroke="#ffffff" stroke-width="2" fill="none"></path></g><g transform="translate(1843.7649348311918 1530.7674013900569) rotate(0 -278.1284183456406 197.04931772172426)"><path d="M-564.23 370.4 C-562.42 375.79, -560.61 381.17, -556.26 394.1 M-564.23 370.4 C-561.83 377.54, -559.43 384.68, -556.26 394.1" stroke="#ffffff" stroke-width="2" fill="none"></path></g><g transform="translate(1843.7649348311918 1530.7674013900569) rotate(0 -278.1284183456406 197.04931772172426)"><path d="M-547.14 370.82 C-549.21 376.11, -551.28 381.4, -556.26 394.1 M-547.14 370.82 C-549.88 377.83, -552.63 384.85, -556.26 394.1" stroke="#ffffff" stroke-width="2" fill="none"></path></g></g><mask></mask><g stroke-linecap="round"><g transform="translate(999.6829017293721 3594.8340143642586) rotate(0 182.65574446206935 -2.651802197313259)"><path d="M0 0 C60.89 -0.88, 304.43 -4.42, 365.31 -5.3 M0 0 C60.89 -0.88, 304.43 -4.42, 365.31 -5.3" stroke="#ffffff" stroke-width="2" fill="none"></path></g><g transform="translate(999.6829017293721 3594.8340143642586) rotate(0 182.65574446206935 -2.651802197313259)"><path d="M341.95 3.59 C348.65 1.04, 355.36 -1.52, 365.31 -5.3 M341.95 3.59 C350.04 0.51, 358.14 -2.57, 365.31 -5.3" stroke="#ffffff" stroke-width="2" fill="none"></path></g><g transform="translate(999.6829017293721 3594.8340143642586) rotate(0 182.65574446206935 -2.651802197313259)"><path d="M341.7 -13.51 C348.47 -11.16, 355.25 -8.8, 365.31 -5.3 M341.7 -13.51 C349.88 -10.67, 358.06 -7.82, 365.31 -5.3" stroke="#ffffff" stroke-width="2" fill="none"></path></g></g><mask></mask><g stroke-linecap="round"><g transform="translate(1710.4575185248082 3585.018967837904) rotate(0 155.83351227623194 -2.68232076693414)"><path d="M0 0 C51.94 -0.89, 259.72 -4.47, 311.67 -5.36 M0 0 C51.94 -0.89, 259.72 -4.47, 311.67 -5.36" stroke="#ffffff" stroke-width="2" fill="none"></path></g><g transform="translate(1710.4575185248082 3585.018967837904) rotate(0 155.83351227623194 -2.68232076693414)"><path d="M288.33 3.59 C293.56 1.58, 298.8 -0.43, 311.67 -5.36 M288.33 3.59 C295.18 0.96, 302.04 -1.67, 311.67 -5.36" stroke="#ffffff" stroke-width="2" fill="none"></path></g><g transform="translate(1710.4575185248082 3585.018967837904) rotate(0 155.83351227623194 -2.68232076693414)"><path d="M288.03 -13.51 C293.34 -11.68, 298.64 -9.85, 311.67 -5.36 M288.03 -13.51 C294.98 -11.12, 301.92 -8.72, 311.67 -5.36" stroke="#ffffff" stroke-width="2" fill="none"></path></g></g><mask></mask><g stroke-linecap="round"><g transform="translate(327.40855933371245 3598.997729210497) rotate(0 172.22657101766868 -3.107221108216322)"><path d="M0 0 C57.41 -1.04, 287.04 -5.18, 344.45 -6.21 M0 0 C57.41 -1.04, 287.04 -5.18, 344.45 -6.21" stroke="#ffffff" stroke-width="2" fill="none"></path></g><g transform="translate(327.40855933371245 3598.997729210497) rotate(0 172.22657101766868 -3.107221108216322)"><path d="M23.33 -8.97 C17.75 -6.83, 12.18 -4.68, 0 0 M23.33 -8.97 C18.06 -6.95, 12.8 -4.92, 0 0" stroke="#ffffff" stroke-width="2" fill="none"></path></g><g transform="translate(327.40855933371245 3598.997729210497) rotate(0 172.22657101766868 -3.107221108216322)"><path d="M23.64 8.13 C17.99 6.18, 12.34 4.24, 0 0 M23.64 8.13 C18.3 6.29, 12.96 4.46, 0 0" stroke="#ffffff" stroke-width="2" fill="none"></path></g><g transform="translate(327.40855933371245 3598.997729210497) rotate(0 172.22657101766868 -3.107221108216322)"><path d="M321.12 2.76 C326.7 0.61, 332.28 -1.53, 344.45 -6.21 M321.12 2.76 C326.39 0.73, 331.66 -1.29, 344.45 -6.21" stroke="#ffffff" stroke-width="2" fill="none"></path></g><g transform="translate(327.40855933371245 3598.997729210497) rotate(0 172.22657101766868 -3.107221108216322)"><path d="M320.81 -14.34 C326.46 -12.4, 332.12 -10.45, 344.45 -6.21 M320.81 -14.34 C326.15 -12.5, 331.49 -10.67, 344.45 -6.21" stroke="#ffffff" stroke-width="2" fill="none"></path></g></g><mask></mask><g stroke-linecap="round"><g transform="translate(747.9581234328023 2508.3762865337058) rotate(0 133.88951068057395 81.85662027390546)"><path d="M0 0 C4.38 12, -7.82 58.63, 26.28 72.01 C60.38 85.39, 164.34 65, 204.59 80.28 C244.84 95.57, 257.25 149.81, 267.78 163.71 M0 0 C4.38 12, -7.82 58.63, 26.28 72.01 C60.38 85.39, 164.34 65, 204.59 80.28 C244.84 95.57, 257.25 149.81, 267.78 163.71" stroke="#ffffff" stroke-width="2" fill="none"></path></g><g transform="translate(747.9581234328023 2508.3762865337058) rotate(0 133.88951068057395 81.85662027390546)"><path d="M11.31 22.29 C7.94 15.66, 4.58 9.03, 0 0 M11.31 22.29 C6.98 13.76, 2.65 5.23, 0 0" stroke="#ffffff" stroke-width="2" fill="none"></path></g><g transform="translate(747.9581234328023 2508.3762865337058) rotate(0 133.88951068057395 81.85662027390546)"><path d="M-5.67 24.35 C-3.98 17.1, -2.29 9.86, 0 0 M-5.67 24.35 C-3.5 15.03, -1.33 5.71, 0 0" stroke="#ffffff" stroke-width="2" fill="none"></path></g></g><mask></mask><g stroke-linecap="round"><g transform="translate(1307.342789837189 2506.7091124354147) rotate(0 -144.5337276336519 82.69020732305106)"><path d="M0 0 C-4.6 12.89, 9.96 63.85, -27.57 77.35 C-65.11 90.86, -181.61 66.36, -225.19 81.03 C-268.77 95.7, -278.42 151.32, -289.07 165.38 M0 0 C-4.6 12.89, 9.96 63.85, -27.57 77.35 C-65.11 90.86, -181.61 66.36, -225.19 81.03 C-268.77 95.7, -278.42 151.32, -289.07 165.38" stroke="#ffffff" stroke-width="2" fill="none"></path></g><g transform="translate(1307.342789837189 2506.7091124354147) rotate(0 -144.5337276336519 82.69020732305106)"><path d="M6.08 24.25 C4.79 19.12, 3.51 14, 0 0 M6.08 24.25 C4 15.98, 1.93 7.7, 0 0" stroke="#ffffff" stroke-width="2" fill="none"></path></g><g transform="translate(1307.342789837189 2506.7091124354147) rotate(0 -144.5337276336519 82.69020732305106)"><path d="M-10.93 22.48 C-8.62 17.73, -6.31 12.98, 0 0 M-10.93 22.48 C-7.2 14.81, -3.47 7.14, 0 0" stroke="#ffffff" stroke-width="2" fill="none"></path></g></g><mask></mask><g stroke-linecap="round"><g transform="translate(1016.7089389535097 2673.219288379563) rotate(0 2.911686773528068 127.76168057002508)"><path d="M0 0 C0.97 42.59, 4.85 212.94, 5.82 255.52 M0 0 C0.97 42.59, 4.85 212.94, 5.82 255.52" stroke="#ffffff" stroke-width="2" fill="none"></path></g><g transform="translate(1016.7089389535097 2673.219288379563) rotate(0 2.911686773528068 127.76168057002508)"><path d="M-3.26 232.23 C0.37 241.53, 4 250.84, 5.82 255.52 M-3.26 232.23 C-0.97 238.09, 1.31 243.95, 5.82 255.52" stroke="#ffffff" stroke-width="2" fill="none"></path></g><g transform="translate(1016.7089389535097 2673.219288379563) rotate(0 2.911686773528068 127.76168057002508)"><path d="M13.84 231.84 C10.64 241.3, 7.44 250.76, 5.82 255.52 M13.84 231.84 C11.82 237.8, 9.8 243.76, 5.82 255.52" stroke="#ffffff" stroke-width="2" fill="none"></path></g></g><mask></mask><g stroke-linecap="round"><g transform="translate(1016.2098255831266 2673.45652225627) rotate(0 247.13240538305695 128.1026381316716)"><path d="M0 0 C74.11 5.17, 362.25 -11.69, 444.63 31.01 C527.01 73.71, 485.99 218.67, 494.26 256.21 M0 0 C74.11 5.17, 362.25 -11.69, 444.63 31.01 C527.01 73.71, 485.99 218.67, 494.26 256.21" stroke="#ffffff" stroke-width="2" fill="none"></path></g><g transform="translate(1016.2098255831266 2673.45652225627) rotate(0 247.13240538305695 128.1026381316716)"><path d="M486.21 232.54 C488.23 238.46, 490.24 244.39, 494.26 256.21 M486.21 232.54 C488.43 239.06, 490.65 245.59, 494.26 256.21" stroke="#ffffff" stroke-width="2" fill="none"></path></g><g transform="translate(1016.2098255831266 2673.45652225627) rotate(0 247.13240538305695 128.1026381316716)"><path d="M503.31 232.9 C501.04 238.73, 498.78 244.57, 494.26 256.21 M503.31 232.9 C500.81 239.32, 498.32 245.75, 494.26 256.21" stroke="#ffffff" stroke-width="2" fill="none"></path></g></g><mask></mask><g stroke-linecap="round"><g transform="translate(1015.369754760165 2673.822125325817) rotate(0 -245.97501134422052 129.11057526847725)"><path d="M0 0 C-72.36 6.18, -352.16 -5.95, -434.15 37.08 C-516.15 80.12, -482.32 221.36, -491.95 258.22 M0 0 C-72.36 6.18, -352.16 -5.95, -434.15 37.08 C-516.15 80.12, -482.32 221.36, -491.95 258.22" stroke="#ffffff" stroke-width="2" fill="none"></path></g><g transform="translate(1015.369754760165 2673.822125325817) rotate(0 -245.97501134422052 129.11057526847725)"><path d="M-499.98 234.55 C-497.69 241.31, -495.39 248.07, -491.95 258.22 M-499.98 234.55 C-498.18 239.85, -496.38 245.16, -491.95 258.22" stroke="#ffffff" stroke-width="2" fill="none"></path></g><g transform="translate(1015.369754760165 2673.822125325817) rotate(0 -245.97501134422052 129.11057526847725)"><path d="M-482.88 234.92 C-485.47 241.58, -488.06 248.23, -491.95 258.22 M-482.88 234.92 C-484.91 240.15, -486.95 245.37, -491.95 258.22" stroke="#ffffff" stroke-width="2" fill="none"></path></g></g><mask></mask><g transform="translate(789.8364785841728 2064.670307590028) rotate(0 34.079978942871094 10)"><text x="0" y="14.016" font-family="Virgil, Segoe UI Emoji" font-size="16px" fill="#ffffff" text-anchor="start" style="white-space: pre;" direction="ltr" dominant-baseline="alphabetic">Two-Way</text></g><g transform="translate(464.4906486889238 3644.157130490938) rotate(0 34.079978942871094 10)"><text x="0" y="14.016" font-family="Virgil, Segoe UI Emoji" font-size="16px" fill="#ffffff" text-anchor="start" style="white-space: pre;" direction="ltr" dominant-baseline="alphabetic">Two-Way</text></g><g transform="translate(961.6752505697091 3311.023789631382) rotate(0 34.079978942871094 10)"><text x="0" y="14.016" font-family="Virgil, Segoe UI Emoji" font-size="16px" fill="#ffffff" text-anchor="start" style="white-space: pre;" direction="ltr" dominant-baseline="alphabetic">Two-Way</text></g><g transform="translate(578.3667513769158 3303.219701190556) rotate(0 34.079978942871094 10)"><text x="0" y="14.016" font-family="Virgil, Segoe UI Emoji" font-size="16px" fill="#ffffff" text-anchor="start" style="white-space: pre;" direction="ltr" dominant-baseline="alphabetic">Two-Way</text></g><g transform="translate(640.1604632047734 3171.37976113705) rotate(0 150.8499298095703 17.5)"><text x="0" y="24.528" font-family="Virgil, Segoe UI Emoji" font-size="28px" fill="#ffffff" text-anchor="start" style="white-space: pre;" direction="ltr" dominant-baseline="alphabetic">Current Staff Acount</text></g><g transform="translate(1210.6769852254833 2206.726184724735) rotate(0 34.079978942871094 10)"><text x="0" y="14.016" font-family="Virgil, Segoe UI Emoji" font-size="16px" fill="#ffffff" text-anchor="start" style="white-space: pre;" direction="ltr" dominant-baseline="alphabetic">Two-Way</text></g><g transform="translate(1748.9004937643108 2082.22482838383) rotate(0 34.079978942871094 10)"><text x="0" y="14.016" font-family="Virgil, Segoe UI Emoji" font-size="16px" fill="#ffffff" text-anchor="start" style="white-space: pre;" direction="ltr" dominant-baseline="alphabetic">Two-Way</text></g><g transform="translate(980.2334497653668 2554.638481530511) rotate(0 34.079978942871094 10)"><text x="0" y="14.016" font-family="Virgil, Segoe UI Emoji" font-size="16px" fill="#ffffff" text-anchor="start" style="white-space: pre;" direction="ltr" dominant-baseline="alphabetic">Two-Way</text></g><g transform="translate(551.7691205076501 10) rotate(0 1062.2932457196766 250.5409359779893)"><text x="0" y="351.15817586674996" font-family="Virgil, Segoe UI Emoji" font-size="400.865497564783px" fill="#a5d8ff" text-anchor="start" style="white-space: pre;" direction="ltr" dominant-baseline="alphabetic">Flow Chart</text></g><g stroke-linecap="round"><g transform="translate(833.2808207252604 3511.7903662590024) rotate(0 -159.57540786894197 -204.59138041532435)"><path d="M0 0 C-53.19 -68.2, -265.96 -340.99, -319.15 -409.18 M0 0 C-53.19 -68.2, -265.96 -340.99, -319.15 -409.18" stroke="#ffffff" stroke-width="2" fill="none"></path></g><g transform="translate(833.2808207252604 3511.7903662590024) rotate(0 -159.57540786894197 -204.59138041532435)"><path d="M-21.19 -13.27 C-14.39 -9.01, -7.59 -4.75, 0 0 M-21.19 -13.27 C-16.67 -10.44, -12.16 -7.61, 0 0" stroke="#ffffff" stroke-width="2" fill="none"></path></g><g transform="translate(833.2808207252604 3511.7903662590024) rotate(0 -159.57540786894197 -204.59138041532435)"><path d="M-7.71 -23.78 C-5.23 -16.15, -2.76 -8.52, 0 0 M-7.71 -23.78 C-6.06 -18.71, -4.42 -13.65, 0 0" stroke="#ffffff" stroke-width="2" fill="none"></path></g><g transform="translate(833.2808207252604 3511.7903662590024) rotate(0 -159.57540786894197 -204.59138041532435)"><path d="M-297.96 -395.92 C-304.76 -400.17, -311.56 -404.43, -319.15 -409.18 M-297.96 -395.92 C-302.48 -398.74, -306.99 -401.57, -319.15 -409.18" stroke="#ffffff" stroke-width="2" fill="none"></path></g><g transform="translate(833.2808207252604 3511.7903662590024) rotate(0 -159.57540786894197 -204.59138041532435)"><path d="M-311.44 -385.4 C-313.92 -393.03, -316.39 -400.66, -319.15 -409.18 M-311.44 -385.4 C-313.09 -390.47, -314.73 -395.54, -319.15 -409.18" stroke="#ffffff" stroke-width="2" fill="none"></path></g></g><mask></mask><g stroke-linecap="round"><g transform="translate(831.9509462629164 3512.079045291279) rotate(0 94.53749078648423 -206.20993390994494)"><path d="M0 0 C31.51 -68.74, 157.56 -343.68, 189.07 -412.42 M0 0 C31.51 -68.74, 157.56 -343.68, 189.07 -412.42" stroke="#ffffff" stroke-width="2" fill="none"></path></g><g transform="translate(831.9509462629164 3512.079045291279) rotate(0 94.53749078648423 -206.20993390994494)"><path d="M2.02 -24.92 C1.61 -19.9, 1.2 -14.88, 0 0 M2.02 -24.92 C1.3 -16.01, 0.57 -7.1, 0 0" stroke="#ffffff" stroke-width="2" fill="none"></path></g><g transform="translate(831.9509462629164 3512.079045291279) rotate(0 94.53749078648423 -206.20993390994494)"><path d="M17.56 -17.79 C14.02 -14.21, 10.49 -10.62, 0 0 M17.56 -17.79 C11.28 -11.43, 5 -5.07, 0 0" stroke="#ffffff" stroke-width="2" fill="none"></path></g><g transform="translate(831.9509462629164 3512.079045291279) rotate(0 94.53749078648423 -206.20993390994494)"><path d="M187.06 -387.5 C187.46 -392.52, 187.87 -397.54, 189.07 -412.42 M187.06 -387.5 C187.78 -396.41, 188.5 -405.32, 189.07 -412.42" stroke="#ffffff" stroke-width="2" fill="none"></path></g><g transform="translate(831.9509462629164 3512.079045291279) rotate(0 94.53749078648423 -206.20993390994494)"><path d="M171.51 -394.63 C175.05 -398.21, 178.59 -401.8, 189.07 -412.42 M171.51 -394.63 C177.79 -400.99, 184.07 -407.35, 189.07 -412.42" stroke="#ffffff" stroke-width="2" fill="none"></path></g></g><mask></mask></svg>